<svg baseProfile="full" height="250px" version="1.1" viewBox="0 0 500 250" width="500px" xml:space="preserve" xmlns="http://www.w3.org/2000/svg" xmlns:rdkit="http://www.rdkit.org/xml" xmlns:xlink="http://www.w3.org/1999/xlink">
<!-- END OF HEADER -->
<rect height="250" style="opacity:1.0;fill:#FFFFFF;stroke:none" width="500" x="0" y="0"> </rect>
<path d="M 35.4875,89.906 L 116.211,177.362" style="fill:none;fill-rule:evenodd;stroke:#7FC97F;stroke-width:25.4px;stroke-linecap:butt;stroke-linejoin:miter;stroke-opacity:1"/>
<path d="M 116.211,177.362 L 232.311,151.181" style="fill:none;fill-rule:evenodd;stroke:#7FC97F;stroke-width:25.4px;stroke-linecap:butt;stroke-linejoin:miter;stroke-opacity:1"/>
<path d="M 232.311,151.181 L 267.689,37.5444" style="fill:none;fill-rule:evenodd;stroke:#666666;stroke-width:25.4px;stroke-linecap:butt;stroke-linejoin:miter;stroke-opacity:1"/>
<path d="M 232.311,151.181 L 313.035,238.636" style="fill:none;fill-rule:evenodd;stroke:#7FC97F;stroke-width:25.4px;stroke-linecap:butt;stroke-linejoin:miter;stroke-opacity:1"/>
<path d="M 267.689,37.5444 L 383.789,11.3636" style="fill:none;fill-rule:evenodd;stroke:#7FC97F;stroke-width:25.4px;stroke-linecap:butt;stroke-linejoin:miter;stroke-opacity:1"/>
<path d="M 383.789,11.3636 L 464.512,98.8192" style="fill:none;fill-rule:evenodd;stroke:#7FC97F;stroke-width:25.4px;stroke-linecap:butt;stroke-linejoin:miter;stroke-opacity:1"/>
<path d="M 464.512,98.8192 L 429.135,212.456" style="fill:none;fill-rule:evenodd;stroke:#7FC97F;stroke-width:25.4px;stroke-linecap:butt;stroke-linejoin:miter;stroke-opacity:1"/>
<path d="M 429.135,212.456 L 313.035,238.636" style="fill:none;fill-rule:evenodd;stroke:#7FC97F;stroke-width:25.4px;stroke-linecap:butt;stroke-linejoin:miter;stroke-opacity:1"/>
<path class="bond-0" d="M 35.4875,89.906 L 67.8672,124.986" style="fill:none;fill-rule:evenodd;stroke:#000000;stroke-width:2.0px;stroke-linecap:butt;stroke-linejoin:miter;stroke-opacity:1"/>
<path class="bond-0" d="M 67.8672,124.986 L 100.247,160.066" style="fill:none;fill-rule:evenodd;stroke:#FF0000;stroke-width:2.0px;stroke-linecap:butt;stroke-linejoin:miter;stroke-opacity:1"/>
<path class="bond-1" d="M 132.186,173.759 L 182.249,162.47" style="fill:none;fill-rule:evenodd;stroke:#FF0000;stroke-width:2.0px;stroke-linecap:butt;stroke-linejoin:miter;stroke-opacity:1"/>
<path class="bond-1" d="M 182.249,162.47 L 232.311,151.181" style="fill:none;fill-rule:evenodd;stroke:#000000;stroke-width:2.0px;stroke-linecap:butt;stroke-linejoin:miter;stroke-opacity:1"/>
<path class="bond-2" d="M 232.311,151.181 L 267.689,37.5444" style="fill:none;fill-rule:evenodd;stroke:#000000;stroke-width:2.0px;stroke-linecap:butt;stroke-linejoin:miter;stroke-opacity:1"/>
<path class="bond-2" d="M 260.345,141.211 L 285.109,61.6653" style="fill:none;fill-rule:evenodd;stroke:#000000;stroke-width:2.0px;stroke-linecap:butt;stroke-linejoin:miter;stroke-opacity:1"/>
<path class="bond-7" d="M 232.311,151.181 L 313.035,238.636" style="fill:none;fill-rule:evenodd;stroke:#000000;stroke-width:2.0px;stroke-linecap:butt;stroke-linejoin:miter;stroke-opacity:1"/>
<path class="bond-3" d="M 267.689,37.5444 L 383.789,11.3636" style="fill:none;fill-rule:evenodd;stroke:#000000;stroke-width:2.0px;stroke-linecap:butt;stroke-linejoin:miter;stroke-opacity:1"/>
<path class="bond-4" d="M 383.789,11.3636 L 464.512,98.8192" style="fill:none;fill-rule:evenodd;stroke:#000000;stroke-width:2.0px;stroke-linecap:butt;stroke-linejoin:miter;stroke-opacity:1"/>
<path class="bond-4" d="M 378.406,40.6267 L 434.913,101.846" style="fill:none;fill-rule:evenodd;stroke:#000000;stroke-width:2.0px;stroke-linecap:butt;stroke-linejoin:miter;stroke-opacity:1"/>
<path class="bond-5" d="M 464.512,98.8192 L 429.135,212.456" style="fill:none;fill-rule:evenodd;stroke:#000000;stroke-width:2.0px;stroke-linecap:butt;stroke-linejoin:miter;stroke-opacity:1"/>
<path class="bond-6" d="M 429.135,212.456 L 313.035,238.636" style="fill:none;fill-rule:evenodd;stroke:#000000;stroke-width:2.0px;stroke-linecap:butt;stroke-linejoin:miter;stroke-opacity:1"/>
<path class="bond-6" d="M 406.484,193.163 L 325.214,211.489" style="fill:none;fill-rule:evenodd;stroke:#000000;stroke-width:2.0px;stroke-linecap:butt;stroke-linejoin:miter;stroke-opacity:1"/>
<path class="atom-1" d="M 103.211 177.442 Q 103.211 170.642, 106.571 166.842 Q 109.931 163.042, 116.211 163.042 Q 122.491 163.042, 125.851 166.842 Q 129.211 170.642, 129.211 177.442 Q 129.211 184.322, 125.811 188.242 Q 122.411 192.122, 116.211 192.122 Q 109.971 192.122, 106.571 188.242 Q 103.211 184.362, 103.211 177.442 M 116.211 188.922 Q 120.531 188.922, 122.851 186.042 Q 125.211 183.122, 125.211 177.442 Q 125.211 171.882, 122.851 169.082 Q 120.531 166.242, 116.211 166.242 Q 111.891 166.242, 109.531 169.042 Q 107.211 171.842, 107.211 177.442 Q 107.211 183.162, 109.531 186.042 Q 111.891 188.922, 116.211 188.922 " fill="#FF0000"/>
</svg>