<svg baseProfile="full" height="250px" version="1.1" viewBox="0 0 500 250" width="500px" xml:space="preserve" xmlns="http://www.w3.org/2000/svg" xmlns:rdkit="http://www.rdkit.org/xml" xmlns:xlink="http://www.w3.org/1999/xlink">
<!-- END OF HEADER -->
<rect height="250" style="opacity:1.0;fill:#FFFFFF;stroke:none" width="500" x="0" y="0"> </rect>
<path d="M 22.7273,133.908 L 33.0579,127.944" style="fill:none;fill-rule:evenodd;stroke:#7FC97F;stroke-width:2.5px;stroke-linecap:butt;stroke-linejoin:miter;stroke-opacity:1"/>
<path d="M 33.0579,127.944 L 43.3884,133.908" style="fill:none;fill-rule:evenodd;stroke:#7FC97F;stroke-width:2.5px;stroke-linecap:butt;stroke-linejoin:miter;stroke-opacity:1"/>
<path d="M 43.3884,133.908 L 53.719,127.944" style="fill:none;fill-rule:evenodd;stroke:#7FC97F;stroke-width:2.5px;stroke-linecap:butt;stroke-linejoin:miter;stroke-opacity:1"/>
<path d="M 53.719,127.944 L 64.0496,133.908" style="fill:none;fill-rule:evenodd;stroke:#7FC97F;stroke-width:2.5px;stroke-linecap:butt;stroke-linejoin:miter;stroke-opacity:1"/>
<path d="M 64.0496,133.908 L 74.3802,127.944" style="fill:none;fill-rule:evenodd;stroke:#7FC97F;stroke-width:2.5px;stroke-linecap:butt;stroke-linejoin:miter;stroke-opacity:1"/>
<path d="M 74.3802,127.944 L 84.7107,133.908" style="fill:none;fill-rule:evenodd;stroke:#7FC97F;stroke-width:2.5px;stroke-linecap:butt;stroke-linejoin:miter;stroke-opacity:1"/>
<path d="M 84.7107,133.908 L 95.0413,127.944" style="fill:none;fill-rule:evenodd;stroke:#7FC97F;stroke-width:2.5px;stroke-linecap:butt;stroke-linejoin:miter;stroke-opacity:1"/>
<path d="M 95.0413,127.944 L 105.372,133.908" style="fill:none;fill-rule:evenodd;stroke:#7FC97F;stroke-width:2.5px;stroke-linecap:butt;stroke-linejoin:miter;stroke-opacity:1"/>
<path d="M 105.372,133.908 L 115.702,127.944" style="fill:none;fill-rule:evenodd;stroke:#666666;stroke-width:2.5px;stroke-linecap:butt;stroke-linejoin:miter;stroke-opacity:1"/>
<path d="M 115.702,127.944 L 126.033,133.908" style="fill:none;fill-rule:evenodd;stroke:#7FC97F;stroke-width:2.5px;stroke-linecap:butt;stroke-linejoin:miter;stroke-opacity:1"/>
<path d="M 126.033,133.908 L 136.364,127.944" style="fill:none;fill-rule:evenodd;stroke:#666666;stroke-width:2.5px;stroke-linecap:butt;stroke-linejoin:miter;stroke-opacity:1"/>
<path d="M 136.364,127.944 L 146.694,133.908" style="fill:none;fill-rule:evenodd;stroke:#7FC97F;stroke-width:2.5px;stroke-linecap:butt;stroke-linejoin:miter;stroke-opacity:1"/>
<path d="M 146.694,133.908 L 157.025,127.944" style="fill:none;fill-rule:evenodd;stroke:#7FC97F;stroke-width:2.5px;stroke-linecap:butt;stroke-linejoin:miter;stroke-opacity:1"/>
<path d="M 157.025,127.944 L 167.355,133.908" style="fill:none;fill-rule:evenodd;stroke:#7FC97F;stroke-width:2.5px;stroke-linecap:butt;stroke-linejoin:miter;stroke-opacity:1"/>
<path d="M 167.355,133.908 L 177.686,127.944" style="fill:none;fill-rule:evenodd;stroke:#7FC97F;stroke-width:2.5px;stroke-linecap:butt;stroke-linejoin:miter;stroke-opacity:1"/>
<path d="M 177.686,127.944 L 188.017,133.908" style="fill:none;fill-rule:evenodd;stroke:#7FC97F;stroke-width:2.5px;stroke-linecap:butt;stroke-linejoin:miter;stroke-opacity:1"/>
<path d="M 188.017,133.908 L 198.347,127.944" style="fill:none;fill-rule:evenodd;stroke:#7FC97F;stroke-width:2.5px;stroke-linecap:butt;stroke-linejoin:miter;stroke-opacity:1"/>
<path d="M 198.347,127.944 L 208.678,133.908" style="fill:none;fill-rule:evenodd;stroke:#7FC97F;stroke-width:2.5px;stroke-linecap:butt;stroke-linejoin:miter;stroke-opacity:1"/>
<path d="M 208.678,133.908 L 219.008,127.944" style="fill:none;fill-rule:evenodd;stroke:#7FC97F;stroke-width:2.5px;stroke-linecap:butt;stroke-linejoin:miter;stroke-opacity:1"/>
<path d="M 219.008,127.944 L 219.008,116.015" style="fill:none;fill-rule:evenodd;stroke:#666666;stroke-width:2.5px;stroke-linecap:butt;stroke-linejoin:miter;stroke-opacity:1"/>
<path d="M 219.008,127.944 L 229.339,133.908" style="fill:none;fill-rule:evenodd;stroke:#666666;stroke-width:2.5px;stroke-linecap:butt;stroke-linejoin:miter;stroke-opacity:1"/>
<path d="M 229.339,133.908 L 239.669,127.944" style="fill:none;fill-rule:evenodd;stroke:#7FC97F;stroke-width:2.5px;stroke-linecap:butt;stroke-linejoin:miter;stroke-opacity:1"/>
<path d="M 239.669,127.944 L 250,133.908" style="fill:none;fill-rule:evenodd;stroke:#666666;stroke-width:2.5px;stroke-linecap:butt;stroke-linejoin:miter;stroke-opacity:1"/>
<path d="M 250,133.908 L 260.331,127.944" style="fill:none;fill-rule:evenodd;stroke:#7FC97F;stroke-width:2.5px;stroke-linecap:butt;stroke-linejoin:miter;stroke-opacity:1"/>
<path d="M 260.331,127.944 L 270.661,133.908" style="fill:none;fill-rule:evenodd;stroke:#7FC97F;stroke-width:2.5px;stroke-linecap:butt;stroke-linejoin:miter;stroke-opacity:1"/>
<path d="M 270.661,133.908 L 280.992,127.944" style="fill:none;fill-rule:evenodd;stroke:#7FC97F;stroke-width:2.5px;stroke-linecap:butt;stroke-linejoin:miter;stroke-opacity:1"/>
<path d="M 280.992,127.944 L 280.992,116.015" style="fill:none;fill-rule:evenodd;stroke:#666666;stroke-width:2.5px;stroke-linecap:butt;stroke-linejoin:miter;stroke-opacity:1"/>
<path d="M 280.992,127.944 L 291.322,133.908" style="fill:none;fill-rule:evenodd;stroke:#666666;stroke-width:2.5px;stroke-linecap:butt;stroke-linejoin:miter;stroke-opacity:1"/>
<path d="M 291.322,133.908 L 301.653,127.944" style="fill:none;fill-rule:evenodd;stroke:#666666;stroke-width:2.5px;stroke-linecap:butt;stroke-linejoin:miter;stroke-opacity:1"/>
<path d="M 301.653,127.944 L 311.983,133.908" style="fill:none;fill-rule:evenodd;stroke:#7FC97F;stroke-width:2.5px;stroke-linecap:butt;stroke-linejoin:miter;stroke-opacity:1"/>
<path d="M 311.983,133.908 L 322.314,127.944" style="fill:none;fill-rule:evenodd;stroke:#7FC97F;stroke-width:2.5px;stroke-linecap:butt;stroke-linejoin:miter;stroke-opacity:1"/>
<path d="M 322.314,127.944 L 332.645,133.908" style="fill:none;fill-rule:evenodd;stroke:#7FC97F;stroke-width:2.5px;stroke-linecap:butt;stroke-linejoin:miter;stroke-opacity:1"/>
<path d="M 332.645,133.908 L 342.975,127.944" style="fill:none;fill-rule:evenodd;stroke:#7FC97F;stroke-width:2.5px;stroke-linecap:butt;stroke-linejoin:miter;stroke-opacity:1"/>
<path d="M 342.975,127.944 L 353.306,133.908" style="fill:none;fill-rule:evenodd;stroke:#7FC97F;stroke-width:2.5px;stroke-linecap:butt;stroke-linejoin:miter;stroke-opacity:1"/>
<path d="M 353.306,133.908 L 363.636,127.944" style="fill:none;fill-rule:evenodd;stroke:#7FC97F;stroke-width:2.5px;stroke-linecap:butt;stroke-linejoin:miter;stroke-opacity:1"/>
<path d="M 363.636,127.944 L 373.967,133.908" style="fill:none;fill-rule:evenodd;stroke:#7FC97F;stroke-width:2.5px;stroke-linecap:butt;stroke-linejoin:miter;stroke-opacity:1"/>
<path d="M 373.967,133.908 L 384.298,127.944" style="fill:none;fill-rule:evenodd;stroke:#7FC97F;stroke-width:2.5px;stroke-linecap:butt;stroke-linejoin:miter;stroke-opacity:1"/>
<path d="M 384.298,127.944 L 394.628,133.908" style="fill:none;fill-rule:evenodd;stroke:#7FC97F;stroke-width:2.5px;stroke-linecap:butt;stroke-linejoin:miter;stroke-opacity:1"/>
<path d="M 394.628,133.908 L 404.959,127.944" style="fill:none;fill-rule:evenodd;stroke:#666666;stroke-width:2.5px;stroke-linecap:butt;stroke-linejoin:miter;stroke-opacity:1"/>
<path d="M 404.959,127.944 L 415.289,133.908" style="fill:none;fill-rule:evenodd;stroke:#666666;stroke-width:2.5px;stroke-linecap:butt;stroke-linejoin:miter;stroke-opacity:1"/>
<path d="M 415.289,133.908 L 425.62,127.944" style="fill:none;fill-rule:evenodd;stroke:#7FC97F;stroke-width:2.5px;stroke-linecap:butt;stroke-linejoin:miter;stroke-opacity:1"/>
<path d="M 425.62,127.944 L 435.95,133.908" style="fill:none;fill-rule:evenodd;stroke:#7FC97F;stroke-width:2.5px;stroke-linecap:butt;stroke-linejoin:miter;stroke-opacity:1"/>
<path d="M 435.95,133.908 L 446.281,127.944" style="fill:none;fill-rule:evenodd;stroke:#7FC97F;stroke-width:2.5px;stroke-linecap:butt;stroke-linejoin:miter;stroke-opacity:1"/>
<path d="M 446.281,127.944 L 456.612,133.908" style="fill:none;fill-rule:evenodd;stroke:#666666;stroke-width:2.5px;stroke-linecap:butt;stroke-linejoin:miter;stroke-opacity:1"/>
<path d="M 456.612,133.908 L 466.942,127.944" style="fill:none;fill-rule:evenodd;stroke:#7FC97F;stroke-width:2.5px;stroke-linecap:butt;stroke-linejoin:miter;stroke-opacity:1"/>
<path d="M 466.942,127.944 L 477.273,133.908" style="fill:none;fill-rule:evenodd;stroke:#666666;stroke-width:2.5px;stroke-linecap:butt;stroke-linejoin:miter;stroke-opacity:1"/>
<path class="bond-0" d="M 22.7273,133.908 L 33.0579,127.944" style="fill:none;fill-rule:evenodd;stroke:#000000;stroke-width:2.0px;stroke-linecap:butt;stroke-linejoin:miter;stroke-opacity:1"/>
<path class="bond-1" d="M 33.0579,127.944 L 43.3884,133.908" style="fill:none;fill-rule:evenodd;stroke:#000000;stroke-width:2.0px;stroke-linecap:butt;stroke-linejoin:miter;stroke-opacity:1"/>
<path class="bond-2" d="M 43.3884,133.908 L 53.719,127.944" style="fill:none;fill-rule:evenodd;stroke:#000000;stroke-width:2.0px;stroke-linecap:butt;stroke-linejoin:miter;stroke-opacity:1"/>
<path class="bond-3" d="M 53.719,127.944 L 64.0496,133.908" style="fill:none;fill-rule:evenodd;stroke:#000000;stroke-width:2.0px;stroke-linecap:butt;stroke-linejoin:miter;stroke-opacity:1"/>
<path class="bond-4" d="M 64.0496,133.908 L 74.3802,127.944" style="fill:none;fill-rule:evenodd;stroke:#000000;stroke-width:2.0px;stroke-linecap:butt;stroke-linejoin:miter;stroke-opacity:1"/>
<path class="bond-5" d="M 74.3802,127.944 L 84.7107,133.908" style="fill:none;fill-rule:evenodd;stroke:#000000;stroke-width:2.0px;stroke-linecap:butt;stroke-linejoin:miter;stroke-opacity:1"/>
<path class="bond-6" d="M 84.7107,133.908 L 95.0413,127.944" style="fill:none;fill-rule:evenodd;stroke:#000000;stroke-width:2.0px;stroke-linecap:butt;stroke-linejoin:miter;stroke-opacity:1"/>
<path class="bond-7" d="M 95.0413,127.944 L 105.372,133.908" style="fill:none;fill-rule:evenodd;stroke:#000000;stroke-width:2.0px;stroke-linecap:butt;stroke-linejoin:miter;stroke-opacity:1"/>
<path class="bond-8" d="M 105.372,133.908 L 115.702,127.944" style="fill:none;fill-rule:evenodd;stroke:#000000;stroke-width:2.0px;stroke-linecap:butt;stroke-linejoin:miter;stroke-opacity:1"/>
<path class="bond-9" d="M 115.702,127.944 L 126.033,133.908" style="fill:none;fill-rule:evenodd;stroke:#000000;stroke-width:2.0px;stroke-linecap:butt;stroke-linejoin:miter;stroke-opacity:1"/>
<path class="bond-10" d="M 126.033,133.908 L 136.364,127.944" style="fill:none;fill-rule:evenodd;stroke:#000000;stroke-width:2.0px;stroke-linecap:butt;stroke-linejoin:miter;stroke-opacity:1"/>
<path class="bond-11" d="M 136.364,127.944 L 146.694,133.908" style="fill:none;fill-rule:evenodd;stroke:#000000;stroke-width:2.0px;stroke-linecap:butt;stroke-linejoin:miter;stroke-opacity:1"/>
<path class="bond-12" d="M 146.694,133.908 L 157.025,127.944" style="fill:none;fill-rule:evenodd;stroke:#000000;stroke-width:2.0px;stroke-linecap:butt;stroke-linejoin:miter;stroke-opacity:1"/>
<path class="bond-13" d="M 157.025,127.944 L 167.355,133.908" style="fill:none;fill-rule:evenodd;stroke:#000000;stroke-width:2.0px;stroke-linecap:butt;stroke-linejoin:miter;stroke-opacity:1"/>
<path class="bond-14" d="M 167.355,133.908 L 177.686,127.944" style="fill:none;fill-rule:evenodd;stroke:#000000;stroke-width:2.0px;stroke-linecap:butt;stroke-linejoin:miter;stroke-opacity:1"/>
<path class="bond-15" d="M 177.686,127.944 L 188.017,133.908" style="fill:none;fill-rule:evenodd;stroke:#000000;stroke-width:2.0px;stroke-linecap:butt;stroke-linejoin:miter;stroke-opacity:1"/>
<path class="bond-16" d="M 188.017,133.908 L 198.347,127.944" style="fill:none;fill-rule:evenodd;stroke:#000000;stroke-width:2.0px;stroke-linecap:butt;stroke-linejoin:miter;stroke-opacity:1"/>
<path class="bond-17" d="M 198.347,127.944 L 202.388,130.277" style="fill:none;fill-rule:evenodd;stroke:#000000;stroke-width:2.0px;stroke-linecap:butt;stroke-linejoin:miter;stroke-opacity:1"/>
<path class="bond-17" d="M 202.388,130.277 L 206.429,132.61" style="fill:none;fill-rule:evenodd;stroke:#FF0000;stroke-width:2.0px;stroke-linecap:butt;stroke-linejoin:miter;stroke-opacity:1"/>
<path class="bond-18" d="M 210.926,132.61 L 214.967,130.277" style="fill:none;fill-rule:evenodd;stroke:#FF0000;stroke-width:2.0px;stroke-linecap:butt;stroke-linejoin:miter;stroke-opacity:1"/>
<path class="bond-18" d="M 214.967,130.277 L 219.008,127.944" style="fill:none;fill-rule:evenodd;stroke:#000000;stroke-width:2.0px;stroke-linecap:butt;stroke-linejoin:miter;stroke-opacity:1"/>
<path class="bond-19" d="M 220.201,127.944 L 220.201,123.236" style="fill:none;fill-rule:evenodd;stroke:#000000;stroke-width:2.0px;stroke-linecap:butt;stroke-linejoin:miter;stroke-opacity:1"/>
<path class="bond-19" d="M 220.201,123.236 L 220.201,118.527" style="fill:none;fill-rule:evenodd;stroke:#FF0000;stroke-width:2.0px;stroke-linecap:butt;stroke-linejoin:miter;stroke-opacity:1"/>
<path class="bond-19" d="M 217.815,127.944 L 217.815,123.236" style="fill:none;fill-rule:evenodd;stroke:#000000;stroke-width:2.0px;stroke-linecap:butt;stroke-linejoin:miter;stroke-opacity:1"/>
<path class="bond-19" d="M 217.815,123.236 L 217.815,118.527" style="fill:none;fill-rule:evenodd;stroke:#FF0000;stroke-width:2.0px;stroke-linecap:butt;stroke-linejoin:miter;stroke-opacity:1"/>
<path class="bond-20" d="M 219.008,127.944 L 229.339,133.908" style="fill:none;fill-rule:evenodd;stroke:#000000;stroke-width:2.0px;stroke-linecap:butt;stroke-linejoin:miter;stroke-opacity:1"/>
<path class="bond-21" d="M 229.339,133.908 L 239.669,127.944" style="fill:none;fill-rule:evenodd;stroke:#000000;stroke-width:2.0px;stroke-linecap:butt;stroke-linejoin:miter;stroke-opacity:1"/>
<path class="bond-22" d="M 239.669,127.944 L 244.005,130.447" style="fill:none;fill-rule:evenodd;stroke:#000000;stroke-width:2.0px;stroke-linecap:butt;stroke-linejoin:miter;stroke-opacity:1"/>
<path class="bond-22" d="M 244.005,130.447 L 248.34,132.95" style="fill:none;fill-rule:evenodd;stroke:#CCCC00;stroke-width:2.0px;stroke-linecap:butt;stroke-linejoin:miter;stroke-opacity:1"/>
<path class="bond-23" d="M 251.66,132.95 L 255.995,130.447" style="fill:none;fill-rule:evenodd;stroke:#CCCC00;stroke-width:2.0px;stroke-linecap:butt;stroke-linejoin:miter;stroke-opacity:1"/>
<path class="bond-23" d="M 255.995,130.447 L 260.331,127.944" style="fill:none;fill-rule:evenodd;stroke:#000000;stroke-width:2.0px;stroke-linecap:butt;stroke-linejoin:miter;stroke-opacity:1"/>
<path class="bond-24" d="M 260.331,127.944 L 270.661,133.908" style="fill:none;fill-rule:evenodd;stroke:#000000;stroke-width:2.0px;stroke-linecap:butt;stroke-linejoin:miter;stroke-opacity:1"/>
<path class="bond-25" d="M 270.661,133.908 L 280.992,127.944" style="fill:none;fill-rule:evenodd;stroke:#000000;stroke-width:2.0px;stroke-linecap:butt;stroke-linejoin:miter;stroke-opacity:1"/>
<path class="bond-26" d="M 282.185,127.944 L 282.185,123.236" style="fill:none;fill-rule:evenodd;stroke:#000000;stroke-width:2.0px;stroke-linecap:butt;stroke-linejoin:miter;stroke-opacity:1"/>
<path class="bond-26" d="M 282.185,123.236 L 282.185,118.527" style="fill:none;fill-rule:evenodd;stroke:#FF0000;stroke-width:2.0px;stroke-linecap:butt;stroke-linejoin:miter;stroke-opacity:1"/>
<path class="bond-26" d="M 279.799,127.944 L 279.799,123.236" style="fill:none;fill-rule:evenodd;stroke:#000000;stroke-width:2.0px;stroke-linecap:butt;stroke-linejoin:miter;stroke-opacity:1"/>
<path class="bond-26" d="M 279.799,123.236 L 279.799,118.527" style="fill:none;fill-rule:evenodd;stroke:#FF0000;stroke-width:2.0px;stroke-linecap:butt;stroke-linejoin:miter;stroke-opacity:1"/>
<path class="bond-27" d="M 280.992,127.944 L 285.033,130.277" style="fill:none;fill-rule:evenodd;stroke:#000000;stroke-width:2.0px;stroke-linecap:butt;stroke-linejoin:miter;stroke-opacity:1"/>
<path class="bond-27" d="M 285.033,130.277 L 289.074,132.61" style="fill:none;fill-rule:evenodd;stroke:#FF0000;stroke-width:2.0px;stroke-linecap:butt;stroke-linejoin:miter;stroke-opacity:1"/>
<path class="bond-28" d="M 293.571,132.61 L 297.612,130.277" style="fill:none;fill-rule:evenodd;stroke:#FF0000;stroke-width:2.0px;stroke-linecap:butt;stroke-linejoin:miter;stroke-opacity:1"/>
<path class="bond-28" d="M 297.612,130.277 L 301.653,127.944" style="fill:none;fill-rule:evenodd;stroke:#000000;stroke-width:2.0px;stroke-linecap:butt;stroke-linejoin:miter;stroke-opacity:1"/>
<path class="bond-29" d="M 301.653,127.944 L 311.983,133.908" style="fill:none;fill-rule:evenodd;stroke:#000000;stroke-width:2.0px;stroke-linecap:butt;stroke-linejoin:miter;stroke-opacity:1"/>
<path class="bond-30" d="M 311.983,133.908 L 322.314,127.944" style="fill:none;fill-rule:evenodd;stroke:#000000;stroke-width:2.0px;stroke-linecap:butt;stroke-linejoin:miter;stroke-opacity:1"/>
<path class="bond-31" d="M 322.314,127.944 L 332.645,133.908" style="fill:none;fill-rule:evenodd;stroke:#000000;stroke-width:2.0px;stroke-linecap:butt;stroke-linejoin:miter;stroke-opacity:1"/>
<path class="bond-32" d="M 332.645,133.908 L 342.975,127.944" style="fill:none;fill-rule:evenodd;stroke:#000000;stroke-width:2.0px;stroke-linecap:butt;stroke-linejoin:miter;stroke-opacity:1"/>
<path class="bond-33" d="M 342.975,127.944 L 353.306,133.908" style="fill:none;fill-rule:evenodd;stroke:#000000;stroke-width:2.0px;stroke-linecap:butt;stroke-linejoin:miter;stroke-opacity:1"/>
<path class="bond-34" d="M 353.306,133.908 L 363.636,127.944" style="fill:none;fill-rule:evenodd;stroke:#000000;stroke-width:2.0px;stroke-linecap:butt;stroke-linejoin:miter;stroke-opacity:1"/>
<path class="bond-35" d="M 363.636,127.944 L 373.967,133.908" style="fill:none;fill-rule:evenodd;stroke:#000000;stroke-width:2.0px;stroke-linecap:butt;stroke-linejoin:miter;stroke-opacity:1"/>
<path class="bond-36" d="M 373.967,133.908 L 384.298,127.944" style="fill:none;fill-rule:evenodd;stroke:#000000;stroke-width:2.0px;stroke-linecap:butt;stroke-linejoin:miter;stroke-opacity:1"/>
<path class="bond-37" d="M 384.298,127.944 L 394.628,133.908" style="fill:none;fill-rule:evenodd;stroke:#000000;stroke-width:2.0px;stroke-linecap:butt;stroke-linejoin:miter;stroke-opacity:1"/>
<path class="bond-38" d="M 394.628,133.908 L 404.959,127.944" style="fill:none;fill-rule:evenodd;stroke:#000000;stroke-width:2.0px;stroke-linecap:butt;stroke-linejoin:miter;stroke-opacity:1"/>
<path class="bond-39" d="M 404.959,127.944 L 415.289,133.908" style="fill:none;fill-rule:evenodd;stroke:#000000;stroke-width:2.0px;stroke-linecap:butt;stroke-linejoin:miter;stroke-opacity:1"/>
<path class="bond-40" d="M 415.289,133.908 L 425.62,127.944" style="fill:none;fill-rule:evenodd;stroke:#000000;stroke-width:2.0px;stroke-linecap:butt;stroke-linejoin:miter;stroke-opacity:1"/>
<path class="bond-41" d="M 425.62,127.944 L 435.95,133.908" style="fill:none;fill-rule:evenodd;stroke:#000000;stroke-width:2.0px;stroke-linecap:butt;stroke-linejoin:miter;stroke-opacity:1"/>
<path class="bond-42" d="M 435.95,133.908 L 446.281,127.944" style="fill:none;fill-rule:evenodd;stroke:#000000;stroke-width:2.0px;stroke-linecap:butt;stroke-linejoin:miter;stroke-opacity:1"/>
<path class="bond-43" d="M 446.281,127.944 L 456.612,133.908" style="fill:none;fill-rule:evenodd;stroke:#000000;stroke-width:2.0px;stroke-linecap:butt;stroke-linejoin:miter;stroke-opacity:1"/>
<path class="bond-44" d="M 456.612,133.908 L 466.942,127.944" style="fill:none;fill-rule:evenodd;stroke:#000000;stroke-width:2.0px;stroke-linecap:butt;stroke-linejoin:miter;stroke-opacity:1"/>
<path class="bond-45" d="M 466.942,127.944 L 477.273,133.908" style="fill:none;fill-rule:evenodd;stroke:#000000;stroke-width:2.0px;stroke-linecap:butt;stroke-linejoin:miter;stroke-opacity:1"/>
<path class="atom-18" d="M 206.728 133.92 Q 206.728 132.9, 207.232 132.33 Q 207.736 131.76, 208.678 131.76 Q 209.62 131.76, 210.124 132.33 Q 210.628 132.9, 210.628 133.92 Q 210.628 134.952, 210.118 135.54 Q 209.608 136.122, 208.678 136.122 Q 207.742 136.122, 207.232 135.54 Q 206.728 134.958, 206.728 133.92 M 208.678 135.642 Q 209.326 135.642, 209.674 135.21 Q 210.028 134.772, 210.028 133.92 Q 210.028 133.086, 209.674 132.666 Q 209.326 132.24, 208.678 132.24 Q 208.03 132.24, 207.676 132.66 Q 207.328 133.08, 207.328 133.92 Q 207.328 134.778, 207.676 135.21 Q 208.03 135.642, 208.678 135.642 " fill="#FF0000"/>
<path class="atom-20" d="M 217.058 116.027 Q 217.058 115.007, 217.562 114.437 Q 218.066 113.867, 219.008 113.867 Q 219.95 113.867, 220.454 114.437 Q 220.958 115.007, 220.958 116.027 Q 220.958 117.059, 220.448 117.647 Q 219.938 118.229, 219.008 118.229 Q 218.072 118.229, 217.562 117.647 Q 217.058 117.065, 217.058 116.027 M 219.008 117.749 Q 219.656 117.749, 220.004 117.317 Q 220.358 116.879, 220.358 116.027 Q 220.358 115.193, 220.004 114.773 Q 219.656 114.347, 219.008 114.347 Q 218.36 114.347, 218.006 114.767 Q 217.658 115.187, 217.658 116.027 Q 217.658 116.885, 218.006 117.317 Q 218.36 117.749, 219.008 117.749 " fill="#FF0000"/>
<path class="atom-23" d="M 248.8 135.366 Q 248.848 135.384, 249.046 135.468 Q 249.244 135.552, 249.46 135.606 Q 249.682 135.654, 249.898 135.654 Q 250.3 135.654, 250.534 135.462 Q 250.768 135.264, 250.768 134.922 Q 250.768 134.688, 250.648 134.544 Q 250.534 134.4, 250.354 134.322 Q 250.174 134.244, 249.874 134.154 Q 249.496 134.04, 249.268 133.932 Q 249.046 133.824, 248.884 133.596 Q 248.728 133.368, 248.728 132.984 Q 248.728 132.45, 249.088 132.12 Q 249.454 131.79, 250.174 131.79 Q 250.666 131.79, 251.224 132.024 L 251.086 132.486 Q 250.576 132.276, 250.192 132.276 Q 249.778 132.276, 249.55 132.45 Q 249.322 132.618, 249.328 132.912 Q 249.328 133.14, 249.442 133.278 Q 249.562 133.416, 249.73 133.494 Q 249.904 133.572, 250.192 133.662 Q 250.576 133.782, 250.804 133.902 Q 251.032 134.022, 251.194 134.268 Q 251.362 134.508, 251.362 134.922 Q 251.362 135.51, 250.966 135.828 Q 250.576 136.14, 249.922 136.14 Q 249.544 136.14, 249.256 136.056 Q 248.974 135.978, 248.638 135.84 L 248.8 135.366 " fill="#CCCC00"/>
<path class="atom-27" d="M 279.042 116.027 Q 279.042 115.007, 279.546 114.437 Q 280.05 113.867, 280.992 113.867 Q 281.934 113.867, 282.438 114.437 Q 282.942 115.007, 282.942 116.027 Q 282.942 117.059, 282.432 117.647 Q 281.922 118.229, 280.992 118.229 Q 280.056 118.229, 279.546 117.647 Q 279.042 117.065, 279.042 116.027 M 280.992 117.749 Q 281.64 117.749, 281.988 117.317 Q 282.342 116.879, 282.342 116.027 Q 282.342 115.193, 281.988 114.773 Q 281.64 114.347, 280.992 114.347 Q 280.344 114.347, 279.99 114.767 Q 279.642 115.187, 279.642 116.027 Q 279.642 116.885, 279.99 117.317 Q 280.344 117.749, 280.992 117.749 " fill="#FF0000"/>
<path class="atom-28" d="M 289.372 133.92 Q 289.372 132.9, 289.876 132.33 Q 290.38 131.76, 291.322 131.76 Q 292.264 131.76, 292.768 132.33 Q 293.272 132.9, 293.272 133.92 Q 293.272 134.952, 292.762 135.54 Q 292.252 136.122, 291.322 136.122 Q 290.386 136.122, 289.876 135.54 Q 289.372 134.958, 289.372 133.92 M 291.322 135.642 Q 291.97 135.642, 292.318 135.21 Q 292.672 134.772, 292.672 133.92 Q 292.672 133.086, 292.318 132.666 Q 291.97 132.24, 291.322 132.24 Q 290.674 132.24, 290.32 132.66 Q 289.972 133.08, 289.972 133.92 Q 289.972 134.778, 290.32 135.21 Q 290.674 135.642, 291.322 135.642 " fill="#FF0000"/>
</svg>