<svg baseProfile="full" height="250px" version="1.1" viewBox="0 0 500 250" width="500px" xml:space="preserve" xmlns="http://www.w3.org/2000/svg" xmlns:rdkit="http://www.rdkit.org/xml" xmlns:xlink="http://www.w3.org/1999/xlink">
<!-- END OF HEADER -->
<rect height="250" style="opacity:1.0;fill:#FFFFFF;stroke:none" width="500" x="0" y="0"> </rect>
<path d="M 22.7273,145.823 L 64.9622,123.757" style="fill:none;fill-rule:evenodd;stroke:#7FC97F;stroke-width:10.2px;stroke-linecap:butt;stroke-linejoin:miter;stroke-opacity:1"/>
<path d="M 64.9622,123.757 L 105.189,149.301" style="fill:none;fill-rule:evenodd;stroke:#7FC97F;stroke-width:10.2px;stroke-linecap:butt;stroke-linejoin:miter;stroke-opacity:1"/>
<path d="M 105.189,149.301 L 147.424,127.235" style="fill:none;fill-rule:evenodd;stroke:#7FC97F;stroke-width:10.2px;stroke-linecap:butt;stroke-linejoin:miter;stroke-opacity:1"/>
<path d="M 147.424,127.235 L 187.651,152.778" style="fill:none;fill-rule:evenodd;stroke:#666666;stroke-width:10.2px;stroke-linecap:butt;stroke-linejoin:miter;stroke-opacity:1"/>
<path d="M 187.651,152.778 L 229.886,130.712" style="fill:none;fill-rule:evenodd;stroke:#7FC97F;stroke-width:10.2px;stroke-linecap:butt;stroke-linejoin:miter;stroke-opacity:1"/>
<path d="M 229.886,130.712 L 270.114,156.256" style="fill:none;fill-rule:evenodd;stroke:#7FC97F;stroke-width:10.2px;stroke-linecap:butt;stroke-linejoin:miter;stroke-opacity:1"/>
<path d="M 270.114,156.256 L 312.349,134.189" style="fill:none;fill-rule:evenodd;stroke:#7FC97F;stroke-width:10.2px;stroke-linecap:butt;stroke-linejoin:miter;stroke-opacity:1"/>
<path d="M 312.349,134.189 L 352.576,159.733" style="fill:none;fill-rule:evenodd;stroke:#666666;stroke-width:10.2px;stroke-linecap:butt;stroke-linejoin:miter;stroke-opacity:1"/>
<path d="M 352.576,159.733 L 394.811,137.667" style="fill:none;fill-rule:evenodd;stroke:#7FC97F;stroke-width:10.2px;stroke-linecap:butt;stroke-linejoin:miter;stroke-opacity:1"/>
<path d="M 394.811,137.667 L 396.818,90.0574" style="fill:none;fill-rule:evenodd;stroke:#666666;stroke-width:10.2px;stroke-linecap:butt;stroke-linejoin:miter;stroke-opacity:1"/>
<path d="M 394.811,137.667 L 435.038,163.21" style="fill:none;fill-rule:evenodd;stroke:#7FC97F;stroke-width:10.2px;stroke-linecap:butt;stroke-linejoin:miter;stroke-opacity:1"/>
<path d="M 435.038,163.21 L 477.273,141.144" style="fill:none;fill-rule:evenodd;stroke:#666666;stroke-width:10.2px;stroke-linecap:butt;stroke-linejoin:miter;stroke-opacity:1"/>
<path class="bond-0" d="M 22.7273,145.823 L 64.9622,123.757" style="fill:none;fill-rule:evenodd;stroke:#000000;stroke-width:2.0px;stroke-linecap:butt;stroke-linejoin:miter;stroke-opacity:1"/>
<path class="bond-1" d="M 64.9622,123.757 L 105.189,149.301" style="fill:none;fill-rule:evenodd;stroke:#000000;stroke-width:2.0px;stroke-linecap:butt;stroke-linejoin:miter;stroke-opacity:1"/>
<path class="bond-2" d="M 105.189,149.301 L 147.424,127.235" style="fill:none;fill-rule:evenodd;stroke:#000000;stroke-width:2.0px;stroke-linecap:butt;stroke-linejoin:miter;stroke-opacity:1"/>
<path class="bond-3" d="M 147.424,127.235 L 187.651,152.778" style="fill:none;fill-rule:evenodd;stroke:#000000;stroke-width:2.0px;stroke-linecap:butt;stroke-linejoin:miter;stroke-opacity:1"/>
<path class="bond-4" d="M 187.651,152.778 L 229.886,130.712" style="fill:none;fill-rule:evenodd;stroke:#000000;stroke-width:2.0px;stroke-linecap:butt;stroke-linejoin:miter;stroke-opacity:1"/>
<path class="bond-5" d="M 229.886,130.712 L 270.114,156.256" style="fill:none;fill-rule:evenodd;stroke:#000000;stroke-width:2.0px;stroke-linecap:butt;stroke-linejoin:miter;stroke-opacity:1"/>
<path class="bond-6" d="M 270.114,156.256 L 312.349,134.189" style="fill:none;fill-rule:evenodd;stroke:#000000;stroke-width:2.0px;stroke-linecap:butt;stroke-linejoin:miter;stroke-opacity:1"/>
<path class="bond-7" d="M 312.349,134.189 L 328.769,144.616" style="fill:none;fill-rule:evenodd;stroke:#000000;stroke-width:2.0px;stroke-linecap:butt;stroke-linejoin:miter;stroke-opacity:1"/>
<path class="bond-7" d="M 328.769,144.616 L 345.19,155.043" style="fill:none;fill-rule:evenodd;stroke:#FF0000;stroke-width:2.0px;stroke-linecap:butt;stroke-linejoin:miter;stroke-opacity:1"/>
<path class="bond-8" d="M 359.962,155.874 L 377.386,146.77" style="fill:none;fill-rule:evenodd;stroke:#FF0000;stroke-width:2.0px;stroke-linecap:butt;stroke-linejoin:miter;stroke-opacity:1"/>
<path class="bond-8" d="M 377.386,146.77 L 394.811,137.667" style="fill:none;fill-rule:evenodd;stroke:#000000;stroke-width:2.0px;stroke-linecap:butt;stroke-linejoin:miter;stroke-opacity:1"/>
<path class="bond-9" d="M 399.572,137.868 L 400.402,118.175" style="fill:none;fill-rule:evenodd;stroke:#000000;stroke-width:2.0px;stroke-linecap:butt;stroke-linejoin:miter;stroke-opacity:1"/>
<path class="bond-9" d="M 400.402,118.175 L 401.232,98.4829" style="fill:none;fill-rule:evenodd;stroke:#FF0000;stroke-width:2.0px;stroke-linecap:butt;stroke-linejoin:miter;stroke-opacity:1"/>
<path class="bond-9" d="M 390.05,137.466 L 390.88,117.774" style="fill:none;fill-rule:evenodd;stroke:#000000;stroke-width:2.0px;stroke-linecap:butt;stroke-linejoin:miter;stroke-opacity:1"/>
<path class="bond-9" d="M 390.88,117.774 L 391.711,98.0813" style="fill:none;fill-rule:evenodd;stroke:#FF0000;stroke-width:2.0px;stroke-linecap:butt;stroke-linejoin:miter;stroke-opacity:1"/>
<path class="bond-10" d="M 394.811,137.667 L 435.038,163.21" style="fill:none;fill-rule:evenodd;stroke:#000000;stroke-width:2.0px;stroke-linecap:butt;stroke-linejoin:miter;stroke-opacity:1"/>
<path class="bond-11" d="M 437.244,167.434 L 479.479,145.368" style="fill:none;fill-rule:evenodd;stroke:#000000;stroke-width:2.0px;stroke-linecap:butt;stroke-linejoin:miter;stroke-opacity:1"/>
<path class="bond-11" d="M 432.831,158.987 L 475.066,136.921" style="fill:none;fill-rule:evenodd;stroke:#000000;stroke-width:2.0px;stroke-linecap:butt;stroke-linejoin:miter;stroke-opacity:1"/>
<path class="atom-8" d="M 346.381 159.771 Q 346.381 156.531, 347.982 154.72 Q 349.583 152.909, 352.576 152.909 Q 355.568 152.909, 357.169 154.72 Q 358.77 156.531, 358.77 159.771 Q 358.77 163.05, 357.15 164.917 Q 355.53 166.766, 352.576 166.766 Q 349.602 166.766, 347.982 164.917 Q 346.381 163.069, 346.381 159.771 M 352.576 165.242 Q 354.634 165.242, 355.74 163.869 Q 356.864 162.478, 356.864 159.771 Q 356.864 157.122, 355.74 155.787 Q 354.634 154.434, 352.576 154.434 Q 350.517 154.434, 349.393 155.768 Q 348.287 157.103, 348.287 159.771 Q 348.287 162.497, 349.393 163.869 Q 350.517 165.242, 352.576 165.242 " fill="#FF0000"/>
<path class="atom-10" d="M 390.624 90.0955 Q 390.624 86.8552, 392.225 85.0444 Q 393.826 83.2336, 396.818 83.2336 Q 399.811 83.2336, 401.412 85.0444 Q 403.013 86.8552, 403.013 90.0955 Q 403.013 93.3739, 401.393 95.2419 Q 399.773 97.0908, 396.818 97.0908 Q 393.845 97.0908, 392.225 95.2419 Q 390.624 93.393, 390.624 90.0955 M 396.818 95.5659 Q 398.877 95.5659, 399.982 94.1936 Q 401.107 92.8021, 401.107 90.0955 Q 401.107 87.4461, 399.982 86.1118 Q 398.877 84.7585, 396.818 84.7585 Q 394.76 84.7585, 393.635 86.0927 Q 392.53 87.427, 392.53 90.0955 Q 392.53 92.8212, 393.635 94.1936 Q 394.76 95.5659, 396.818 95.5659 " fill="#FF0000"/>
</svg>