<svg baseProfile="full" height="250px" version="1.1" viewBox="0 0 500 250" width="500px" xml:space="preserve" xmlns="http://www.w3.org/2000/svg" xmlns:rdkit="http://www.rdkit.org/xml" xmlns:xlink="http://www.w3.org/1999/xlink">
<!-- END OF HEADER -->
<rect height="250" style="opacity:1.0;fill:#FFFFFF;stroke:none" width="500" x="0" y="0"> </rect>
<path d="M 445.023,131.18 L 388.527,100.631" style="fill:none;fill-rule:evenodd;stroke:#666666;stroke-width:13.7px;stroke-linecap:butt;stroke-linejoin:miter;stroke-opacity:1"/>
<path d="M 388.527,100.631 L 333.823,134.284" style="fill:none;fill-rule:evenodd;stroke:#7FC97F;stroke-width:13.7px;stroke-linecap:butt;stroke-linejoin:miter;stroke-opacity:1"/>
<path d="M 333.823,134.284 L 277.326,103.735" style="fill:none;fill-rule:evenodd;stroke:#7FC97F;stroke-width:13.7px;stroke-linecap:butt;stroke-linejoin:miter;stroke-opacity:1"/>
<path d="M 277.326,103.735 L 222.622,137.388" style="fill:none;fill-rule:evenodd;stroke:#666666;stroke-width:13.7px;stroke-linecap:butt;stroke-linejoin:miter;stroke-opacity:1"/>
<path d="M 222.622,137.388 L 166.126,106.839" style="fill:none;fill-rule:evenodd;stroke:#7FC97F;stroke-width:13.7px;stroke-linecap:butt;stroke-linejoin:miter;stroke-opacity:1"/>
<path d="M 166.126,106.839 L 111.422,140.492" style="fill:none;fill-rule:evenodd;stroke:#7FC97F;stroke-width:13.7px;stroke-linecap:butt;stroke-linejoin:miter;stroke-opacity:1"/>
<path d="M 111.422,140.492 L 54.9258,109.943" style="fill:none;fill-rule:evenodd;stroke:#666666;stroke-width:13.7px;stroke-linecap:butt;stroke-linejoin:miter;stroke-opacity:1"/>
<path class="bond-0" d="M 436.519,126.582 L 412.523,113.606" style="fill:none;fill-rule:evenodd;stroke:#0000FF;stroke-width:2.0px;stroke-linecap:butt;stroke-linejoin:miter;stroke-opacity:1"/>
<path class="bond-0" d="M 412.523,113.606 L 388.527,100.631" style="fill:none;fill-rule:evenodd;stroke:#000000;stroke-width:2.0px;stroke-linecap:butt;stroke-linejoin:miter;stroke-opacity:1"/>
<path class="bond-1" d="M 388.527,100.631 L 333.823,134.284" style="fill:none;fill-rule:evenodd;stroke:#000000;stroke-width:2.0px;stroke-linecap:butt;stroke-linejoin:miter;stroke-opacity:1"/>
<path class="bond-2" d="M 333.823,134.284 L 277.326,103.735" style="fill:none;fill-rule:evenodd;stroke:#000000;stroke-width:2.0px;stroke-linecap:butt;stroke-linejoin:miter;stroke-opacity:1"/>
<path class="bond-3" d="M 277.326,103.735 L 222.622,137.388" style="fill:none;fill-rule:evenodd;stroke:#000000;stroke-width:2.0px;stroke-linecap:butt;stroke-linejoin:miter;stroke-opacity:1"/>
<path class="bond-4" d="M 222.622,137.388 L 166.126,106.839" style="fill:none;fill-rule:evenodd;stroke:#000000;stroke-width:2.0px;stroke-linecap:butt;stroke-linejoin:miter;stroke-opacity:1"/>
<path class="bond-5" d="M 166.126,106.839 L 111.422,140.492" style="fill:none;fill-rule:evenodd;stroke:#000000;stroke-width:2.0px;stroke-linecap:butt;stroke-linejoin:miter;stroke-opacity:1"/>
<path class="bond-6" d="M 111.422,140.492 L 87.4257,127.517" style="fill:none;fill-rule:evenodd;stroke:#000000;stroke-width:2.0px;stroke-linecap:butt;stroke-linejoin:miter;stroke-opacity:1"/>
<path class="bond-6" d="M 87.4257,127.517 L 63.4294,114.542" style="fill:none;fill-rule:evenodd;stroke:#0000FF;stroke-width:2.0px;stroke-linecap:butt;stroke-linejoin:miter;stroke-opacity:1"/>
<path class="atom-0" d="M 441.002 122.085 L 446.962 131.719 Q 447.553 132.67, 448.504 134.391 Q 449.454 136.112, 449.506 136.215 L 449.506 122.085 L 451.921 122.085 L 451.921 140.274 L 449.429 140.274 L 443.032 129.741 Q 442.287 128.508, 441.49 127.095 Q 440.72 125.682, 440.488 125.245 L 440.488 140.274 L 438.125 140.274 L 438.125 122.085 L 441.002 122.085 " fill="#0000FF"/>
<path class="atom-0" d="M 454.104 122.085 L 456.571 122.085 L 456.571 129.818 L 465.871 129.818 L 465.871 122.085 L 468.337 122.085 L 468.337 140.274 L 465.871 140.274 L 465.871 131.874 L 456.571 131.874 L 456.571 140.274 L 454.104 140.274 L 454.104 122.085 " fill="#0000FF"/>
<path class="atom-0" d="M 469.219 139.636 Q 469.66 138.5, 470.711 137.873 Q 471.762 137.228, 473.22 137.228 Q 475.035 137.228, 476.052 138.212 Q 477.069 139.195, 477.069 140.942 Q 477.069 142.722, 475.747 144.384 Q 474.441 146.045, 471.728 148.012 L 477.273 148.012 L 477.273 149.369 L 469.185 149.369 L 469.185 148.233 Q 471.423 146.639, 472.746 145.452 Q 474.085 144.265, 474.729 143.197 Q 475.374 142.129, 475.374 141.027 Q 475.374 139.874, 474.797 139.229 Q 474.221 138.585, 473.22 138.585 Q 472.254 138.585, 471.609 138.975 Q 470.965 139.365, 470.507 140.23 L 469.219 139.636 " fill="#0000FF"/>
<path class="atom-7" d="M 22.7273 100.849 L 25.1936 100.849 L 25.1936 108.582 L 34.4936 108.582 L 34.4936 100.849 L 36.9599 100.849 L 36.9599 119.038 L 34.4936 119.038 L 34.4936 110.637 L 25.1936 110.637 L 25.1936 119.038 L 22.7273 119.038 L 22.7273 100.849 " fill="#0000FF"/>
<path class="atom-7" d="M 37.8416 118.4 Q 38.2824 117.264, 39.3337 116.636 Q 40.3849 115.992, 41.8431 115.992 Q 43.6574 115.992, 44.6748 116.976 Q 45.6921 117.959, 45.6921 119.705 Q 45.6921 121.486, 44.3696 123.147 Q 43.064 124.809, 40.351 126.776 L 45.8956 126.776 L 45.8956 128.132 L 37.8077 128.132 L 37.8077 126.996 Q 40.0458 125.403, 41.3684 124.216 Q 42.7079 123.029, 43.3522 121.961 Q 43.9965 120.892, 43.9965 119.79 Q 43.9965 118.637, 43.42 117.993 Q 42.8435 117.349, 41.8431 117.349 Q 40.8767 117.349, 40.2323 117.739 Q 39.588 118.129, 39.1302 118.993 L 37.8416 118.4 " fill="#0000FF"/>
<path class="atom-7" d="M 50.9052 100.849 L 56.8655 110.483 Q 57.4563 111.434, 58.4069 113.155 Q 59.3574 114.876, 59.4088 114.979 L 59.4088 100.849 L 61.8237 100.849 L 61.8237 119.038 L 59.3318 119.038 L 52.9348 108.505 Q 52.1898 107.272, 51.3934 105.859 Q 50.6226 104.446, 50.3914 104.009 L 50.3914 119.038 L 48.0279 119.038 L 48.0279 100.849 L 50.9052 100.849 " fill="#0000FF"/>
</svg>