<svg baseProfile="full" height="250px" version="1.1" viewBox="0 0 500 250" width="500px" xml:space="preserve" xmlns="http://www.w3.org/2000/svg" xmlns:rdkit="http://www.rdkit.org/xml" xmlns:xlink="http://www.w3.org/1999/xlink">
<!-- END OF HEADER -->
<rect height="250" style="opacity:1.0;fill:#FFFFFF;stroke:none" width="500" x="0" y="0"> </rect>
<path d="M 51.0994,94.0808 L 117.221,132.256" style="fill:none;fill-rule:evenodd;stroke:#7FC97F;stroke-width:16.3px;stroke-linecap:butt;stroke-linejoin:miter;stroke-opacity:1"/>
<path d="M 117.221,132.256 L 183.343,94.0808" style="fill:none;fill-rule:evenodd;stroke:#7FC97F;stroke-width:16.3px;stroke-linecap:butt;stroke-linejoin:miter;stroke-opacity:1"/>
<path d="M 183.343,94.0808 L 249.466,132.256" style="fill:none;fill-rule:evenodd;stroke:#666666;stroke-width:16.3px;stroke-linecap:butt;stroke-linejoin:miter;stroke-opacity:1"/>
<path d="M 249.466,132.256 L 315.588,94.0808" style="fill:none;fill-rule:evenodd;stroke:#7FC97F;stroke-width:16.3px;stroke-linecap:butt;stroke-linejoin:miter;stroke-opacity:1"/>
<path d="M 315.588,94.0808 L 381.71,132.256" style="fill:none;fill-rule:evenodd;stroke:#666666;stroke-width:16.3px;stroke-linecap:butt;stroke-linejoin:miter;stroke-opacity:1"/>
<path d="M 381.71,132.256 L 447.832,94.0808" style="fill:none;fill-rule:evenodd;stroke:#666666;stroke-width:16.3px;stroke-linecap:butt;stroke-linejoin:miter;stroke-opacity:1"/>
<path class="bond-0" d="M 62.9338,100.913 L 90.0776,116.585" style="fill:none;fill-rule:evenodd;stroke:#FF0000;stroke-width:2.0px;stroke-linecap:butt;stroke-linejoin:miter;stroke-opacity:1"/>
<path class="bond-0" d="M 90.0776,116.585 L 117.221,132.256" style="fill:none;fill-rule:evenodd;stroke:#000000;stroke-width:2.0px;stroke-linecap:butt;stroke-linejoin:miter;stroke-opacity:1"/>
<path class="bond-1" d="M 117.221,132.256 L 183.343,94.0808" style="fill:none;fill-rule:evenodd;stroke:#000000;stroke-width:2.0px;stroke-linecap:butt;stroke-linejoin:miter;stroke-opacity:1"/>
<path class="bond-2" d="M 183.343,94.0808 L 211.35,110.25" style="fill:none;fill-rule:evenodd;stroke:#000000;stroke-width:2.0px;stroke-linecap:butt;stroke-linejoin:miter;stroke-opacity:1"/>
<path class="bond-2" d="M 211.35,110.25 L 239.357,126.42" style="fill:none;fill-rule:evenodd;stroke:#0000FF;stroke-width:2.0px;stroke-linecap:butt;stroke-linejoin:miter;stroke-opacity:1"/>
<path class="bond-3" d="M 259.574,126.42 L 287.581,110.25" style="fill:none;fill-rule:evenodd;stroke:#0000FF;stroke-width:2.0px;stroke-linecap:butt;stroke-linejoin:miter;stroke-opacity:1"/>
<path class="bond-3" d="M 287.581,110.25 L 315.588,94.0808" style="fill:none;fill-rule:evenodd;stroke:#000000;stroke-width:2.0px;stroke-linecap:butt;stroke-linejoin:miter;stroke-opacity:1"/>
<path class="bond-4" d="M 315.588,94.0808 L 381.71,132.256" style="fill:none;fill-rule:evenodd;stroke:#000000;stroke-width:2.0px;stroke-linecap:butt;stroke-linejoin:miter;stroke-opacity:1"/>
<path class="bond-5" d="M 381.71,132.256 L 408.853,116.585" style="fill:none;fill-rule:evenodd;stroke:#000000;stroke-width:2.0px;stroke-linecap:butt;stroke-linejoin:miter;stroke-opacity:1"/>
<path class="bond-5" d="M 408.853,116.585 L 435.997,100.913" style="fill:none;fill-rule:evenodd;stroke:#FF0000;stroke-width:2.0px;stroke-linecap:butt;stroke-linejoin:miter;stroke-opacity:1"/>
<path class="atom-0" d="M 22.7273 83.3917 L 25.6592 83.3917 L 25.6592 92.5843 L 36.7148 92.5843 L 36.7148 83.3917 L 39.6467 83.3917 L 39.6467 105.014 L 36.7148 105.014 L 36.7148 95.0276 L 25.6592 95.0276 L 25.6592 105.014 L 22.7273 105.014 L 22.7273 83.3917 " fill="#FF0000"/>
<path class="atom-0" d="M 41.1737 94.1419 Q 41.1737 88.95, 43.7391 86.0487 Q 46.3045 83.1473, 51.0994 83.1473 Q 55.8942 83.1473, 58.4596 86.0487 Q 61.025 88.95, 61.025 94.1419 Q 61.025 99.3949, 58.4291 102.388 Q 55.8331 105.35, 51.0994 105.35 Q 46.3351 105.35, 43.7391 102.388 Q 41.1737 99.4254, 41.1737 94.1419 M 51.0994 102.907 Q 54.3977 102.907, 56.1691 100.708 Q 57.971 98.4787, 57.971 94.1419 Q 57.971 89.8968, 56.1691 87.759 Q 54.3977 85.5906, 51.0994 85.5906 Q 47.801 85.5906, 45.9991 87.7284 Q 44.2278 89.8662, 44.2278 94.1419 Q 44.2278 98.5092, 45.9991 100.708 Q 47.801 102.907, 51.0994 102.907 " fill="#FF0000"/>
<path class="atom-3" d="M 244.686 121.445 L 251.771 132.898 Q 252.474 134.028, 253.604 136.074 Q 254.734 138.12, 254.795 138.242 L 254.795 121.445 L 257.666 121.445 L 257.666 143.068 L 254.703 143.068 L 247.099 130.546 Q 246.213 129.08, 245.266 127.4 Q 244.35 125.721, 244.075 125.202 L 244.075 143.068 L 241.265 143.068 L 241.265 121.445 L 244.686 121.445 " fill="#0000FF"/>
<path class="atom-3" d="M 241.006 145.23 L 243.938 145.23 L 243.938 154.423 L 254.993 154.423 L 254.993 145.23 L 257.925 145.23 L 257.925 166.853 L 254.993 166.853 L 254.993 156.866 L 243.938 156.866 L 243.938 166.853 L 241.006 166.853 L 241.006 145.23 " fill="#0000FF"/>
<path class="atom-6" d="M 437.906 94.1419 Q 437.906 88.95, 440.471 86.0487 Q 443.037 83.1473, 447.832 83.1473 Q 452.627 83.1473, 455.192 86.0487 Q 457.757 88.95, 457.757 94.1419 Q 457.757 99.3949, 455.161 102.388 Q 452.565 105.35, 447.832 105.35 Q 443.067 105.35, 440.471 102.388 Q 437.906 99.4254, 437.906 94.1419 M 447.832 102.907 Q 451.13 102.907, 452.901 100.708 Q 454.703 98.4787, 454.703 94.1419 Q 454.703 89.8968, 452.901 87.759 Q 451.13 85.5906, 447.832 85.5906 Q 444.533 85.5906, 442.731 87.7284 Q 440.96 89.8662, 440.96 94.1419 Q 440.96 98.5092, 442.731 100.708 Q 444.533 102.907, 447.832 102.907 " fill="#FF0000"/>
<path class="atom-6" d="M 460.353 83.3917 L 463.285 83.3917 L 463.285 92.5843 L 474.341 92.5843 L 474.341 83.3917 L 477.273 83.3917 L 477.273 105.014 L 474.341 105.014 L 474.341 95.0276 L 463.285 95.0276 L 463.285 105.014 L 460.353 105.014 L 460.353 83.3917 " fill="#FF0000"/>
</svg>