<svg baseProfile="full" height="250px" version="1.1" viewBox="0 0 500 250" width="500px" xml:space="preserve" xmlns="http://www.w3.org/2000/svg" xmlns:rdkit="http://www.rdkit.org/xml" xmlns:xlink="http://www.w3.org/1999/xlink">
<!-- END OF HEADER -->
<rect height="250" style="opacity:1.0;fill:#FFFFFF;stroke:none" width="500" x="0" y="0"> </rect>
<path d="M 81.0982,11.3636 L 146.706,125" style="fill:none;fill-rule:evenodd;stroke:#7FC97F;stroke-width:28.0px;stroke-linecap:butt;stroke-linejoin:miter;stroke-opacity:1"/>
<path d="M 146.706,125 L 81.0982,238.636" style="fill:none;fill-rule:evenodd;stroke:#666666;stroke-width:28.0px;stroke-linecap:butt;stroke-linejoin:miter;stroke-opacity:1"/>
<path d="M 146.706,125 L 277.922,125" style="fill:none;fill-rule:evenodd;stroke:#7FC97F;stroke-width:28.0px;stroke-linecap:butt;stroke-linejoin:miter;stroke-opacity:1"/>
<path d="M 277.922,125 L 409.138,125" style="fill:none;fill-rule:evenodd;stroke:#666666;stroke-width:28.0px;stroke-linecap:butt;stroke-linejoin:miter;stroke-opacity:1"/>
<path class="bond-0" d="M 81.0982,11.3636 L 146.706,125" style="fill:none;fill-rule:evenodd;stroke:#000000;stroke-width:2.0px;stroke-linecap:butt;stroke-linejoin:miter;stroke-opacity:1"/>
<path class="bond-1" d="M 146.706,125 L 81.0982,238.636" style="fill:none;fill-rule:evenodd;stroke:#000000;stroke-width:2.0px;stroke-linecap:butt;stroke-linejoin:miter;stroke-opacity:1"/>
<path class="bond-2" d="M 146.706,125 L 277.922,125" style="fill:none;fill-rule:evenodd;stroke:#000000;stroke-width:2.0px;stroke-linecap:butt;stroke-linejoin:miter;stroke-opacity:1"/>
<path class="bond-3" d="M 277.922,125 L 336.52,125" style="fill:none;fill-rule:evenodd;stroke:#000000;stroke-width:2.0px;stroke-linecap:butt;stroke-linejoin:miter;stroke-opacity:1"/>
<path class="bond-3" d="M 336.52,125 L 395.118,125" style="fill:none;fill-rule:evenodd;stroke:#0000FF;stroke-width:2.0px;stroke-linecap:butt;stroke-linejoin:miter;stroke-opacity:1"/>
<path class="bond-3" d="M 295.502,151.243 L 345.31,151.243" style="fill:none;fill-rule:evenodd;stroke:#000000;stroke-width:2.0px;stroke-linecap:butt;stroke-linejoin:miter;stroke-opacity:1"/>
<path class="bond-3" d="M 345.31,151.243 L 395.118,151.243" style="fill:none;fill-rule:evenodd;stroke:#0000FF;stroke-width:2.0px;stroke-linecap:butt;stroke-linejoin:miter;stroke-opacity:1"/>
<path class="bond-3" d="M 295.502,98.7568 L 345.31,98.7568" style="fill:none;fill-rule:evenodd;stroke:#000000;stroke-width:2.0px;stroke-linecap:butt;stroke-linejoin:miter;stroke-opacity:1"/>
<path class="bond-3" d="M 345.31,98.7568 L 395.118,98.7568" style="fill:none;fill-rule:evenodd;stroke:#0000FF;stroke-width:2.0px;stroke-linecap:butt;stroke-linejoin:miter;stroke-opacity:1"/>
<path class="atom-4" d="M 402.878 110.84 L 412.158 125.84 Q 413.078 127.32, 414.558 130 Q 416.038 132.68, 416.118 132.84 L 416.118 110.84 L 419.878 110.84 L 419.878 139.16 L 415.998 139.16 L 406.038 122.76 Q 404.878 120.84, 403.638 118.64 Q 402.438 116.44, 402.078 115.76 L 402.078 139.16 L 398.398 139.16 L 398.398 110.84 L 402.878 110.84 " fill="#0000FF"/>
</svg>