<svg baseProfile="full" height="250px" version="1.1" viewBox="0 0 500 250" width="500px" xml:space="preserve" xmlns="http://www.w3.org/2000/svg" xmlns:rdkit="http://www.rdkit.org/xml" xmlns:xlink="http://www.w3.org/1999/xlink">
<!-- END OF HEADER -->
<rect height="250" style="opacity:1.0;fill:#FFFFFF;stroke:none" width="500" x="0" y="0"> </rect>
<path d="M 34.5439,178.354 L 150.966,140.526" style="fill:none;fill-rule:evenodd;stroke:#666666;stroke-width:26.1px;stroke-linecap:butt;stroke-linejoin:miter;stroke-opacity:1"/>
<path d="M 150.966,140.526 L 250,212.479" style="fill:none;fill-rule:evenodd;stroke:#666666;stroke-width:26.1px;stroke-linecap:butt;stroke-linejoin:miter;stroke-opacity:1"/>
<path d="M 150.966,140.526 L 188.793,24.1046" style="fill:none;fill-rule:evenodd;stroke:#666666;stroke-width:26.1px;stroke-linecap:butt;stroke-linejoin:miter;stroke-opacity:1"/>
<path d="M 250,212.479 L 349.034,140.526" style="fill:none;fill-rule:evenodd;stroke:#7FC97F;stroke-width:26.1px;stroke-linecap:butt;stroke-linejoin:miter;stroke-opacity:1"/>
<path d="M 349.034,140.526 L 465.456,178.354" style="fill:none;fill-rule:evenodd;stroke:#666666;stroke-width:26.1px;stroke-linecap:butt;stroke-linejoin:miter;stroke-opacity:1"/>
<path d="M 349.034,140.526 L 311.207,24.1046" style="fill:none;fill-rule:evenodd;stroke:#666666;stroke-width:26.1px;stroke-linecap:butt;stroke-linejoin:miter;stroke-opacity:1"/>
<path d="M 311.207,24.1046 L 188.793,24.1046" style="fill:none;fill-rule:evenodd;stroke:#7FC97F;stroke-width:26.1px;stroke-linecap:butt;stroke-linejoin:miter;stroke-opacity:1"/>
<path class="bond-0" d="M 54.387,184.778 L 104.568,168.473" style="fill:none;fill-rule:evenodd;stroke:#FF0000;stroke-width:2.0px;stroke-linecap:butt;stroke-linejoin:miter;stroke-opacity:1"/>
<path class="bond-0" d="M 104.568,168.473 L 154.748,152.169" style="fill:none;fill-rule:evenodd;stroke:#000000;stroke-width:2.0px;stroke-linecap:butt;stroke-linejoin:miter;stroke-opacity:1"/>
<path class="bond-0" d="M 46.8214,161.494 L 97.0022,145.189" style="fill:none;fill-rule:evenodd;stroke:#FF0000;stroke-width:2.0px;stroke-linecap:butt;stroke-linejoin:miter;stroke-opacity:1"/>
<path class="bond-0" d="M 97.0022,145.189 L 147.183,128.884" style="fill:none;fill-rule:evenodd;stroke:#000000;stroke-width:2.0px;stroke-linecap:butt;stroke-linejoin:miter;stroke-opacity:1"/>
<path class="bond-1" d="M 150.966,140.526 L 192.453,170.668" style="fill:none;fill-rule:evenodd;stroke:#000000;stroke-width:2.0px;stroke-linecap:butt;stroke-linejoin:miter;stroke-opacity:1"/>
<path class="bond-1" d="M 192.453,170.668 L 233.94,200.811" style="fill:none;fill-rule:evenodd;stroke:#FF0000;stroke-width:2.0px;stroke-linecap:butt;stroke-linejoin:miter;stroke-opacity:1"/>
<path class="bond-6" d="M 150.966,140.526 L 188.793,24.1046" style="fill:none;fill-rule:evenodd;stroke:#000000;stroke-width:2.0px;stroke-linecap:butt;stroke-linejoin:miter;stroke-opacity:1"/>
<path class="bond-2" d="M 266.06,200.811 L 307.547,170.668" style="fill:none;fill-rule:evenodd;stroke:#FF0000;stroke-width:2.0px;stroke-linecap:butt;stroke-linejoin:miter;stroke-opacity:1"/>
<path class="bond-2" d="M 307.547,170.668 L 349.034,140.526" style="fill:none;fill-rule:evenodd;stroke:#000000;stroke-width:2.0px;stroke-linecap:butt;stroke-linejoin:miter;stroke-opacity:1"/>
<path class="bond-3" d="M 345.252,152.169 L 395.432,168.473" style="fill:none;fill-rule:evenodd;stroke:#000000;stroke-width:2.0px;stroke-linecap:butt;stroke-linejoin:miter;stroke-opacity:1"/>
<path class="bond-3" d="M 395.432,168.473 L 445.613,184.778" style="fill:none;fill-rule:evenodd;stroke:#FF0000;stroke-width:2.0px;stroke-linecap:butt;stroke-linejoin:miter;stroke-opacity:1"/>
<path class="bond-3" d="M 352.817,128.884 L 402.998,145.189" style="fill:none;fill-rule:evenodd;stroke:#000000;stroke-width:2.0px;stroke-linecap:butt;stroke-linejoin:miter;stroke-opacity:1"/>
<path class="bond-3" d="M 402.998,145.189 L 453.179,161.494" style="fill:none;fill-rule:evenodd;stroke:#FF0000;stroke-width:2.0px;stroke-linecap:butt;stroke-linejoin:miter;stroke-opacity:1"/>
<path class="bond-4" d="M 349.034,140.526 L 311.207,24.1046" style="fill:none;fill-rule:evenodd;stroke:#000000;stroke-width:2.0px;stroke-linecap:butt;stroke-linejoin:miter;stroke-opacity:1"/>
<path class="bond-5" d="M 311.207,24.1046 L 188.793,24.1046" style="fill:none;fill-rule:evenodd;stroke:#000000;stroke-width:2.0px;stroke-linecap:butt;stroke-linejoin:miter;stroke-opacity:1"/>
<path class="bond-5" d="M 292.845,48.5872 L 207.155,48.5872" style="fill:none;fill-rule:evenodd;stroke:#000000;stroke-width:2.0px;stroke-linecap:butt;stroke-linejoin:miter;stroke-opacity:1"/>
<path class="atom-0" d="M 21.5439 178.434 Q 21.5439 171.634, 24.9039 167.834 Q 28.2639 164.034, 34.5439 164.034 Q 40.8239 164.034, 44.1839 167.834 Q 47.5439 171.634, 47.5439 178.434 Q 47.5439 185.314, 44.1439 189.234 Q 40.7439 193.114, 34.5439 193.114 Q 28.3039 193.114, 24.9039 189.234 Q 21.5439 185.354, 21.5439 178.434 M 34.5439 189.914 Q 38.8639 189.914, 41.1839 187.034 Q 43.5439 184.114, 43.5439 178.434 Q 43.5439 172.874, 41.1839 170.074 Q 38.8639 167.234, 34.5439 167.234 Q 30.2239 167.234, 27.8639 170.034 Q 25.5439 172.834, 25.5439 178.434 Q 25.5439 184.154, 27.8639 187.034 Q 30.2239 189.914, 34.5439 189.914 " fill="#FF0000"/>
<path class="atom-2" d="M 237 212.559 Q 237 205.759, 240.36 201.959 Q 243.72 198.159, 250 198.159 Q 256.28 198.159, 259.64 201.959 Q 263 205.759, 263 212.559 Q 263 219.439, 259.6 223.359 Q 256.2 227.239, 250 227.239 Q 243.76 227.239, 240.36 223.359 Q 237 219.479, 237 212.559 M 250 224.039 Q 254.32 224.039, 256.64 221.159 Q 259 218.239, 259 212.559 Q 259 206.999, 256.64 204.199 Q 254.32 201.359, 250 201.359 Q 245.68 201.359, 243.32 204.159 Q 241 206.959, 241 212.559 Q 241 218.279, 243.32 221.159 Q 245.68 224.039, 250 224.039 " fill="#FF0000"/>
<path class="atom-4" d="M 452.456 178.434 Q 452.456 171.634, 455.816 167.834 Q 459.176 164.034, 465.456 164.034 Q 471.736 164.034, 475.096 167.834 Q 478.456 171.634, 478.456 178.434 Q 478.456 185.314, 475.056 189.234 Q 471.656 193.114, 465.456 193.114 Q 459.216 193.114, 455.816 189.234 Q 452.456 185.354, 452.456 178.434 M 465.456 189.914 Q 469.776 189.914, 472.096 187.034 Q 474.456 184.114, 474.456 178.434 Q 474.456 172.874, 472.096 170.074 Q 469.776 167.234, 465.456 167.234 Q 461.136 167.234, 458.776 170.034 Q 456.456 172.834, 456.456 178.434 Q 456.456 184.154, 458.776 187.034 Q 461.136 189.914, 465.456 189.914 " fill="#FF0000"/>
</svg>